<svg class="svg-icon" style="width: 1em; height: 1em;vertical-align: middle;fill: currentColor;overflow: hidden;" viewBox="0 0 1024 1024" version="1.1" xmlns="http://www.w3.org/2000/svg"><path d="M853.333333 0H170.666667v85.333333h682.666666V0zM170.666667 1024h682.666666v-85.333333H170.666667v85.333333zM853.333333 170.666667H170.666667c-47.146667 0-85.333333 38.186667-85.333334 85.333333v512c0 47.146667 38.186667 85.333333 85.333334 85.333333h682.666666c47.146667 0 85.333333-38.186667 85.333334-85.333333V256c0-47.146667-38.186667-85.333333-85.333334-85.333333z m-341.333333 117.333333c52.906667 0 96 43.093333 96 96a96 96 0 0 1-192 0c0-52.906667 43.093333-96 96-96zM725.333333 725.333333H298.666667v-64c0-71.04 142.293333-106.666667 213.333333-106.666666s213.333333 35.626667 213.333333 106.666666v64z"  /></svg>